<svg xmlns="http://www.w3.org/2000/svg" version="1.1" xmlns:xlink="http://www.w3.org/1999/xlink" xmlns:svgjs="http://svgjs.com/svgjs" width="1440" height="560" preserveAspectRatio="none" viewBox="0 0 1440 560"><g mask="url(&quot;#SvgjsMask2186&quot;)" fill="none"><rect width="1440" height="560" x="0" y="0" fill="url(#SvgjsLinearGradient2187)"></rect><path d="M467.1 626.96C619.72 557.85 542.67 79.76 844.34 73.08 1146 66.4 1407.22 206.96 1598.81 207.48" stroke="rgba(51,121,194,0.58)" stroke-width="2"></path><path d="M855.51 631.02C959.94 626.77 1017.97 468.56 1234.51 454.58 1451.06 440.6 1501 218.69 1613.52 208.18" stroke="rgba(51,121,194,0.58)" stroke-width="2"></path><path d="M706.68 576.15C828.27 533.8 780.57 175.86 1028.81 174.32 1277.05 172.78 1506.28 346.41 1673.08 347.92" stroke="rgba(51,121,194,0.58)" stroke-width="2"></path><path d="M571.98 668.21C710.36 600.27 636.46 157.47 906.46 150.17 1176.46 142.87 1405.62 267.32 1575.42 267.77" stroke="rgba(51,121,194,0.58)" stroke-width="2"></path><path d="M251.18 651.47C440.28 643.68 590.33 331.39 936.96 330.84 1283.59 330.29 1448.79 448.01 1622.74 448.44" stroke="rgba(51,121,194,0.58)" stroke-width="2"></path></g><defs><mask id="SvgjsMask2186"><rect width="1440" height="560" fill="#ffffff"></rect></mask><linearGradient x1="15.28%" y1="-39.29%" x2="84.72%" y2="139.29%" gradientUnits="userSpaceOnUse" id="SvgjsLinearGradient2187"><stop stop-color="#0e2a47" offset="0"></stop><stop stop-color="rgba(38, 73, 114, 1)" offset="1"></stop></linearGradient></defs></svg>